PathFileType	4	(X/Y/Z)	/mnt/data/output.trc
DataRate	CameraRate	NumFrames	NumMarkers	Units	OrigDataRate	OrigDataStartFrame	OrigNumFrames
100	100	7	17	mm	100	1488	3966
Frame#	Time	nosex	nosey	nosez	lefteyex	lefteyey	lefteyez	righteyex	righteyey	righteyez	leftearx	lefteary	leftearz	rightearx	righteary	rightearz	leftshoulderx	leftshouldery	leftshoulderz	rightshoulderx	rightshouldery	rightshoulderz	leftelbowx	leftelbowy	leftelbowz	rightelbowx	rightelbowy	rightelbowz	leftwristx	leftwristy	leftwristz	rightwristx	rightwristy	rightwristz	lefthipx	lefthipy	lefthipz	righthipx	righthipy	righthipz	leftkneex	leftkneey	leftkneez	rightkneex	rightkneey	rightkneez	leftanklex	leftankley	leftanklez	rightanklex	rightankley	rightanklez
		1	1	1	2	2	2	3	3	3	4	4	4	5	5	5	6	6	6	7	7	7	8	8	8	9	9	9	10	10	10	11	11	11	12	12	12	13	13	13	14	14	14	15	15	15	16	16	16	17	17	17
1488	14.88	-72.0433341931919	-564.3971667359339	3247.766509925636	-45.97982393641013	-592.0429892024815	3261.887053300531	-90.00108390746774	-592.1847503267796	3261.326042948046	11.339070162977668	-584.3378763711347	3365.3723482018954	-148.06894157219895	-586.1400359624786	3368.907952948223	91.3440249737196	-402.9301946037747	3424.3132474818794	-232.8213421891484	-412.9719464346394	3423.283011361734	141.9972841781414	-128.0956813115274	3406.618885120517	-291.39907377229474	-152.1095540199281	3448.3131428261804	144.1956699644005	68.14160190163759	3364.432082558346	-301.9405371806044	73.37108928278056	3384.1675837728994	24.689761275409776	22.09007094006534	3447.722264469742	-183.46908438494367	13.222859314148774	3450.1239585624644	13.73882332858205	426.9223808733909	3531.5550675667773	-157.04689591840514	429.7614214786227	3527.4327642221447	18.86884167342605	793.7082924667195	3546.8498584588115	-144.9935683523851	793.1524693161655	3559.2911586195914
1489	14.89	-72.06743014452454	-564.3474435299026	3247.70826823058	-46.00169863609501	-591.9979767719954	3261.8276609711043	-90.0255452072884	-592.1340180306382	3261.2687527353287	11.140497340158037	-583.9737969691573	3362.478905498468	-147.90644363620834	-586.4309350233614	3371.815335270981	91.32720890050136	-402.8949698395497	3424.257056464541	-232.82832772475936	-412.92819973681975	3423.203558746707	141.98197416940388	-128.070736215704	3406.565921273751	-291.39965570679067	-152.07366454424113	3448.2286556469526	144.17896780793345	68.15683080021165	3364.382696785254	-301.94228696660457	73.40051919780008	3384.084696577918	24.28129572370599	24.8375093805287	3447.699157992367	-185.86014345892747	14.60943483597968	3448.440536973692	11.759828441088809	426.9734864162271	3530.0071952728504	-157.05319674658116	429.7702881893557	3527.355760915579	18.84767805420178	793.6979977967709	3546.784013356432	-145.0095593811479	793.1456242404792	3559.2155118115397
1490	14.9	-72.11975757824415	-565.8055786962034	3247.6340161912417	-45.98377179569301	-592.0294158704872	3261.770372877021	-90.0025906924323	-592.1689153481673	3261.211035701503	11.620140430369975	-584.2926571065647	3365.195699330237	-148.06882515298926	-586.1229827898637	3368.7786748790595	91.3574026251486	-402.9190250747624	3424.203275163926	-232.81861564261936	-412.9528770326595	3423.141571091559	142.01329538329227	-128.08700253569305	3406.512570833077	-291.3938658986701	-152.08956207249022	3448.162498039073	144.21024395984003	68.1491759319177	3364.325109296052	-301.93773237943714	73.39067755567747	3384.0181826872176	24.30671448840174	24.82727228691875	3447.6394620017472	-185.84767314694787	14.598955055744447	3448.37526439686	11.782611369467908	426.9764997633925	3529.9496915676123	-157.03997900642582	429.7735533747365	3527.293829455244	18.86795645626903	793.7135799935611	3546.730151252894	-144.99739262336442	793.1615206241224	3559.1578851459326
1491	14.91	-72.1957129359441	-565.7863331474875	3247.6078728190305	-46.027102067947226	-591.9778527781257	3261.742715987781	-92.40413687421812	-593.3840892980473	3259.5316782134323	9.700435834238116	-584.1148602862373	3363.4817322140348	-148.10578500754514	-586.10990524035	3368.7399026600474	91.32240698733224	-402.9047942835106	3424.157049887557	-233.2773747186231	-412.6882798276509	3420.6062143336826	141.8938343835903	-129.45664899948144	3406.6031781286392	-291.43606326095096	-152.08094967026565	3448.1256328834866	144.17354034475846	68.16117652898087	3364.2824622026137	-301.98173620609145	73.39673780813115	3383.9854034395157	24.26656326603046	24.837337508307822	3447.597188428998	-185.8899810282278	14.60742715618233	3448.3370025944305	13.708025945950457	426.9379445985387	3531.393960838537	-157.08421451743422	429.7785198233101	3527.258439944876	18.823151333271444	793.7171162562498	3546.698828372784	-145.0431173819442	793.163245139635	3559.128275665683
1492	14.92	-72.37801973688465	-565.7634099594933	3247.5037357509004	-46.17357264141402	-591.9531761085733	3261.632489252383	-92.5849455550164	-593.3596171963316	3259.4253897036324	9.558294670728468	-584.0891743049958	3363.35597392258	-148.24806945367814	-586.0834840648469	3368.620331584144	90.76901598739704	-402.5736163922657	3421.0887460511462	-233.417674551621	-412.66523324610336	3420.4866982807343	141.31032086933104	-127.75611552119948	3403.3559928519544	-291.5747638214653	-152.06412257970618	3448.008969638523	139.91381689319542	85.96778408424709	3374.789557948868	-302.12075049307424	73.4070189190517	3383.8744537751136	24.12644861633134	24.85196735617492	3447.4679213790696	-186.02958993216436	14.62162632995163	3448.21647986501	13.569977053695643	426.9442890407082	3531.26629188148	-157.22240063381733	429.7835327856114	3527.1382332319104	19.145060157728533	792.3805738438915	3545.749721039557	-145.18372804703836	793.1594776013646	3559.013670690353
1493	14.93	-72.37507041095552	-565.7008469577084	3247.482647312694	-46.17473735227016	-591.8996553476659	3261.6093598614007	-92.5826543662634	-593.2956739107159	3259.4033433231093	9.557738661490117	-584.0366418588851	3363.32871852018	-148.24862132100156	-586.029733438755	3368.5947330242648	91.18358427544968	-402.8338914116961	3423.9894184638665	-233.41480569920373	-412.6164345249695	3420.458485332055	141.31264537611003	-127.71838125578638	3403.3238936262755	-291.566823882445	-152.0237461201971	3447.979319825137	140.2496359332923	84.45271210134767	3374.1589859057112	-302.1095704266748	73.43904452458236	3383.8499231001265	24.133069574530445	24.88632483053985	3447.4313350841853	-186.02073785899813	14.656988061424467	3448.1843366854614	13.578649547360454	426.9649874885346	3531.2257270421323	-157.21130023419917	429.8046101551	3527.1008720801583	19.1538118409258	792.3881573200807	3545.7065740658622	-145.17205919694933	793.1678618602526	3558.9727884326785
1494	14.94	-72.54426023845285	-565.5992373269177	3247.3229932648155	-46.31489528364922	-591.8092875812107	3261.441888045764	-92.75160116974324	-593.1917512881193	3259.2422702884355	11.296032300428744	-584.112082577525	3364.827896864637	-148.39157153375297	-585.9391307153264	3368.418815966237	91.03749697656438	-402.75411865866175	3423.810957914941	-233.55446588021567	-412.5328530671883	3420.274067063675	141.17114940127382	-127.65283716981595	3403.148454331792	-291.6982170540473	-151.95303221770885	3447.7923568657598	140.1088257513197	84.51086890948237	3373.961771006064	-302.232884339045	73.49623005251861	3383.671752480199	23.995877919049875	24.945864461452175	3447.25106275621	-184.46316915768463	14.912682853920908	3446.8127512874235	13.444792771601197	427.0039351501779	3531.044316204461	-157.3396362916993	429.84411593500863	3526.917076669283	19.024478543627243	792.4069602212465	3545.53259773744	-143.55469376882093	793.0867980272249	3560.398963362696
